HIERARCHY
ROOT reference
{
  OFFSET 0 0 0
  CHANNELS 6 Xposition Yposition Zposition Zrotation Xrotation Yrotation
  JOINT Hips
  {
    OFFSET 21.0812 52.6014 -12.9849
    CHANNELS 6 Xposition Yposition Zposition Zrotation Xrotation Yrotation
    JOINT Spine
    {
      OFFSET 0 7.52385 0
      CHANNELS 6 Xposition Yposition Zposition Zrotation Xrotation Yrotation
      JOINT Spine1
      {
        OFFSET 0 21.7843 0
        CHANNELS 6 Xposition Yposition Zposition Zrotation Xrotation Yrotation
        JOINT Neck
        {
          OFFSET 0 21.6948 1.97225
          CHANNELS 6 Xposition Yposition Zposition Zrotation Xrotation Yrotation
          JOINT Head
          {
            OFFSET 0 12.8456 -1.83509
            CHANNELS 6 Xposition Yposition Zposition Zrotation Xrotation Yrotation
            End Site
            {
              OFFSET 0 22.9386 0
            }
          }
        }
        JOINT LeftShoulder
        {
          OFFSET 3.65748 19.7052 -0.211895
          CHANNELS 6 Xposition Yposition Zposition Zrotation Xrotation Yrotation
          JOINT LeftArm
          {
            OFFSET 11.1953 0 0
            CHANNELS 6 Xposition Yposition Zposition Zrotation Xrotation Yrotation
            JOINT LeftForeArm
            {
              OFFSET 29.6607 0 0
              CHANNELS 6 Xposition Yposition Zposition Zrotation Xrotation Yrotation
              JOINT LeftHand
              {
                OFFSET 23.3476 0 0
                CHANNELS 6 Xposition Yposition Zposition Zrotation Xrotation Yrotation
                End Site
                {
                  OFFSET 13.7631 0 0
                }
              }
            }
          }
        }
        JOINT RightShoulder
        {
          OFFSET -3.68053 19.7052 -0.211895
          CHANNELS 6 Xposition Yposition Zposition Zrotation Xrotation Yrotation
          JOINT RightArm
          {
            OFFSET -11.1953 0 0
            CHANNELS 6 Xposition Yposition Zposition Zrotation Xrotation Yrotation
            JOINT RightForeArm
            {
              OFFSET -29.6607 0 0
              CHANNELS 6 Xposition Yposition Zposition Zrotation Xrotation Yrotation
              JOINT RightHand
              {
                OFFSET -23.3476 0 0
                CHANNELS 6 Xposition Yposition Zposition Zrotation Xrotation Yrotation
                End Site
                {
                  OFFSET -13.7631 0 0
                }
              }
            }
          }
        }
      }
    }
    JOINT LeftUpLeg
    {
      OFFSET 9.17543 0 0
      CHANNELS 6 Xposition Yposition Zposition Zrotation Xrotation Yrotation
      JOINT LeftLeg
      {
        OFFSET 0 -39.1216 0
        CHANNELS 6 Xposition Yposition Zposition Zrotation Xrotation Yrotation
        JOINT LeftFoot
        {
          OFFSET 0 -35.3569 0
          CHANNELS 6 Xposition Yposition Zposition Zrotation Xrotation Yrotation
          JOINT LeftToeBase
          {
            OFFSET 0 -5.96403 13.7631
            CHANNELS 6 Xposition Yposition Zposition Zrotation Xrotation Yrotation
            End Site
            {
              OFFSET 0 0 3.67017
            }
          }
        }
      }
    }
    JOINT RightUpLeg
    {
      OFFSET -9.17543 0 0
      CHANNELS 6 Xposition Yposition Zposition Zrotation Xrotation Yrotation
      JOINT RightLeg
      {
        OFFSET 0 -39.1216 0
        CHANNELS 6 Xposition Yposition Zposition Zrotation Xrotation Yrotation
        JOINT RightFoot
        {
          OFFSET 0 -35.3569 0
          CHANNELS 6 Xposition Yposition Zposition Zrotation Xrotation Yrotation
          JOINT RightToeBase
          {
            OFFSET 0 -5.96403 13.7631
            CHANNELS 6 Xposition Yposition Zposition Zrotation Xrotation Yrotation
            End Site
            {
              OFFSET 0 0 3.67017
            }
          }
        }
      }
    }
  }
}
MOTION
Frames:	7
Frame Time:	0.004
0 0 0 0 0 -0 -2.6784 75.0542 -217.124 -0.0223169 -9.12362 1.16718 4.44089e-016 7.52385 2.84217e-014 1.4514 2.97427 0.0848427 0 21.7843 -2.84217e-014 -0.0194134 2.57305 0.123233 0 21.6948 1.97225 -0.960238 12.1651 -0.905979 0 12.8456 -1.83509 0.918657 5.35198 -0.825113 3.65748 19.7052 -0.211895 19.5685 -2.79177 -2.51854 11.1953 0 0 -22.673 6.579 3.30773 29.6607 -4.26326e-014 -2.84217e-014 1.74613 -3.83423 0.281108 23.3476 0 0 -3.57017 -3.66623 -5.53553 -3.68053 19.7052 -0.211895 -17.0717 1.09015 -1.54344 -11.1953 0 -2.84217e-014 24.5501 10.4299 5.77822 -29.6607 0 0 -3.60979 -3.2306 3.66204 -23.3476 0 0 3.56222 -3.011 3.37035 9.17543 0 2.84217e-014 0.95321 8.44051 -1.54038 -8.88178e-016 -39.1216 -2.84217e-014 -0.441636 7.80312 -4.67982 1.77636e-015 -35.3569 2.84217e-014 2.9058 -11.4816 11.5043 0 -5.96403 13.7631 1.98785e-016 1.59028e-015 -0 -9.17543 0 2.84217e-014 -2.90366 8.4252 5.80357 -1.77636e-015 -39.1216 2.84217e-014 1.1382 9.81296 5.9133 -7.10543e-015 -35.3569 0 -1.10051 -12.3818 -19.2253 0 -5.96403 13.7631 4.96962e-017 0 7.95139e-016 
0 0 0 0 0 -0 -2.6784 75.0542 -217.124 -0.0226186 -9.109 1.16713 0 7.52385 2.84217e-014 1.45141 2.96732 0.0848421 0 21.7843 0 -0.0194387 2.5848 0.123234 -8.88178e-016 21.6948 1.97225 -0.936397 12.1778 -0.906023 0 12.8456 -1.83509 0.885046 5.31675 -0.825066 3.65748 19.7052 -0.211895 19.5701 -2.77298 -2.50173 11.1953 0 0 -22.6696 6.56202 3.28704 29.6607 0 -2.84217e-014 1.74593 -3.83724 0.280601 23.3476 0 -2.84217e-014 -3.57293 -3.66932 -5.52837 -3.68053 19.7052 -0.211895 -17.0671 1.08463 -1.54511 -11.1953 1.42109e-014 2.84217e-014 24.5486 10.437 5.78304 -29.6607 1.42109e-014 0 -3.63521 -3.2797 3.66222 -23.3476 0 0 3.58785 -3.05788 3.39609 9.17543 0 0 0.950389 8.41512 -1.52573 0 -39.1216 0 -0.424803 7.81615 -4.70533 -3.55271e-015 -35.3569 -2.84217e-014 2.89457 -11.4816 11.5059 3.55271e-015 -5.96403 13.7631 3.97569e-016 0 1.59028e-015 -9.17543 1.42109e-014 2.84217e-014 -2.90088 8.39813 5.80316 -3.55271e-015 -39.1216 0 1.13695 9.82482 5.91351 0 -35.3569 2.84217e-014 -1.10917 -12.369 -19.2234 7.10543e-015 -5.96403 13.7631 1.98785e-016 3.97569e-016 7.95139e-016 
0 0 0 0 0 -0 -2.6784 75.0542 -217.124 -0.0224784 -9.1158 1.16715 0 7.52385 0 1.45139 2.98402 0.0848434 8.88178e-016 21.7843 0 -0.0194397 2.58529 0.123234 0 21.6948 1.97225 -0.927763 12.1878 -0.906057 0 12.8456 -1.83509 0.881066 5.30463 -0.82505 3.65748 19.7052 -0.211895 19.5798 -2.77083 -2.49669 11.1953 0 -2.84217e-014 -22.6699 6.56863 3.28598 29.6607 0 0 1.70796 -3.87954 0.271387 23.3476 2.84217e-014 2.84217e-014 -3.39357 -3.72192 -5.46555 -3.68053 19.7052 -0.211895 -17.0564 1.07394 -1.53362 -11.1953 -1.42109e-014 -2.84217e-014 24.5503 10.4463 5.76824 -29.6607 -1.42109e-014 0 -3.64146 -3.27318 3.66219 -23.3476 0 -2.84217e-014 3.64542 -3.04904 3.40323 9.17543 0 0 0.95203 8.43143 -1.53398 8.88178e-016 -39.1216 0 -0.437594 7.79323 -4.655 -3.55271e-015 -35.3569 -2.84217e-014 2.90679 -11.4804 11.4806 0 -5.96403 13.7631 -1.98785e-016 -7.95139e-016 -7.95139e-016 -9.17543 0 0 -2.90025 8.39201 5.80307 0 -39.1216 0 1.13427 9.8503 5.91397 0 -35.3569 0 -1.0866 -12.3999 -19.2104 0 -5.96403 13.7631 -5.46658e-016 0 2.38542e-015 
0 0 0 0 0 -0 -2.6784 75.0542 -217.127 -0.0230857 -9.11406 1.16354 4.44089e-016 7.52385 0 1.45138 2.99169 0.084844 8.88178e-016 21.7843 -2.84217e-014 -0.011904 2.58799 0.123234 0 21.6948 1.97225 -0.913898 12.1811 -0.906034 0 12.8456 -1.83509 0.857128 5.3122 -0.82506 3.65748 19.7052 -0.211895 19.5783 -2.76053 -2.50433 11.1953 2.84217e-014 0 -22.6667 6.52348 3.28086 29.6607 -1.42109e-014 -2.84217e-014 1.74716 -3.81684 0.286529 23.3476 0 0 -3.58791 -3.6479 -5.5401 -3.68053 19.7052 -0.211895 -17.0622 1.08605 -1.54702 -11.1953 -1.42109e-014 0 24.5557 10.4228 5.78864 -29.6607 -1.42109e-014 0 -3.66678 -3.30781 3.66232 -23.3476 -1.42109e-014 0 4.04768 -3.0656 3.54481 9.17543 1.42109e-014 0 0.948446 8.40797 -1.51373 8.88178e-016 -39.1216 5.68434e-014 -0.441604 7.8349 -4.68937 0 -35.3569 0 2.90338 -11.4901 11.5125 0 -5.96403 13.7631 7.95139e-016 0 -1.59028e-015 -9.17543 0 2.84217e-014 -2.89848 8.38009 5.80615 1.77636e-015 -39.1216 0 1.13179 9.85996 5.92166 0 -35.3569 0 -1.0647 -12.4068 -19.2156 -7.10543e-015 -5.96403 13.7631 4.96962e-017 0 -0 
0 0 0 0 0 -0 -2.6784 75.0542 -217.131 -0.0240682 -9.11104 1.15772 4.44089e-016 7.52385 0 1.44859 2.99765 0.08484 8.88178e-016 21.7843 2.84217e-014 0.004441 2.5983 0.122463 -1.77636e-015 21.6948 1.97225 -0.920513 12.1748 -0.905714 -4.44089e-016 12.8456 -1.83509 0.843705 5.31955 -0.825786 3.65748 19.7052 -0.211895 19.5614 -2.77017 -2.50365 11.1953 -2.84217e-014 0 -22.6639 6.52553 3.29423 29.6607 -1.42109e-014 0 1.73712 -3.81589 0.283339 23.3476 0 2.84217e-014 -3.56019 -3.64809 -5.54462 -3.68053 19.7052 -0.211895 -17.0799 1.07918 -1.53867 -11.1953 0 2.84217e-014 24.5666 10.4364 5.78526 -29.6607 1.42109e-014 -2.84217e-014 -3.68253 -3.34591 3.64861 -23.3476 -1.42109e-014 0 4.06751 -3.10107 3.59958 9.17543 0 2.84217e-014 0.947363 8.41089 -1.50581 0 -39.1216 -2.84217e-014 -0.442483 7.82096 -4.67415 -3.55271e-015 -35.3569 0 2.91008 -11.4926 11.4878 0 -5.96403 13.7631 9.93923e-017 7.95139e-016 -7.95139e-016 -9.17543 0 2.84217e-014 -2.86477 8.41155 5.68154 0 -39.1216 -2.84217e-014 1.0332 9.78077 5.87093 -3.55271e-015 -35.3569 -2.84217e-014 -1.03371 -12.3637 -19.0306 0 -5.96403 13.7631 -2.48481e-016 0 -1.59028e-015 
0 0 0 0 0 -0 -2.6784 75.0542 -217.136 -0.0230761 -9.10777 1.15475 0 7.52385 2.84217e-014 1.34466 2.99452 0.107505 0 21.7843 -2.84217e-014 0.362513 2.71097 0.133937 0 21.6948 1.97225 -1.38977 11.9329 -0.922316 0 12.8456 -1.83509 1.05104 5.44422 -0.802995 3.65748 19.7052 -0.211895 19.2229 -2.94531 -2.42629 11.1953 0 -2.84217e-014 -22.5675 6.68029 3.27405 29.6607 0 2.84217e-014 1.53989 -4.12356 0.115575 23.3476 0 0 -2.47926 -4.01492 -5.10206 -3.68053 19.7052 -0.211895 -17.5339 1.06206 -1.78171 -11.1953 1.42109e-014 -2.84217e-014 24.7418 10.4442 5.97601 -29.6607 0 0 -3.68126 -3.33126 3.64872 -23.3476 1.42109e-014 0 4.09322 -3.08557 3.60231 9.17543 0 2.84217e-014 0.945498 8.39587 -1.51222 8.88178e-016 -39.1216 0 -0.43399 7.8369 -4.69102 1.77636e-015 -35.3569 2.84217e-014 2.91668 -11.4933 11.5014 0 -5.96403 13.7631 1.98785e-016 1.59028e-015 7.95139e-016 -9.17543 0 0 -2.86536 8.39479 5.67448 0 -39.1216 0 1.0293 9.79512 5.85996 7.10543e-015 -35.3569 0 -1.01781 -12.3749 -19.0177 -7.10543e-015 -5.96403 13.7631 -1.98785e-016 -7.95139e-016 -0 
0 0 0 0 0 -0 -2.6784 75.0542 -217.139 -0.021962 -9.10531 1.15232 0 7.52385 0 1.45847 3.01216 0.084796 0 21.7843 0 -0.019578 2.59979 0.123574 8.88178e-016 21.6948 1.97225 -0.886754 12.1829 -0.902327 -4.44089e-016 12.8456 -1.83509 0.808744 5.311 -0.826968 3.65748 19.7052 -0.211895 19.5816 -2.75082 -2.4952 11.1953 0 2.84217e-014 -22.6717 6.51941 3.28145 29.6607 1.42109e-014 -2.84217e-014 1.70177 -3.75352 0.340019 23.3476 0 2.84217e-014 -3.49289 -3.58061 -5.84291 -3.68053 19.7052 -0.211895 -17.0635 1.07964 -1.54057 -11.1953 0 0 24.5663 10.4266 5.79285 -29.6607 0 0 -3.6818 -3.32249 3.6338 -23.3476 0 -2.84217e-014 4.09366 -3.07631 3.62775 9.17543 0 0 0.942542 8.39459 -1.51133 0 -39.1216 0 -0.433807 7.8299 -4.67944 1.77636e-015 -35.3569 0 2.90515 -11.4945 11.4966 -3.55271e-015 -5.96403 13.7631 -9.93923e-017 -7.95139e-016 7.95139e-016 -9.17543 1.42109e-014 2.84217e-014 -2.8695 8.37874 5.66229 1.77636e-015 -39.1216 0 1.02624 9.82138 5.90253 -7.10543e-015 -35.3569 -2.84217e-014 -1.02818 -12.381 -19.0313 0 -5.96403 13.7631 -4.96962e-017 -7.95139e-016 -1.59028e-015 
